Coordinates
nRows=4
nColumns=38

# SIMM Motion File Header:
name Coordinates
datacolumns 38
datarows 4
otherdata 1
range 2.05750000000000010000 2.06050000000000020000

Units are S.I. units (second, meters, Newtons, ...)
Angles are in degrees.

endheader
time	pelvis_tilt	pelvis_list	pelvis_rotation	pelvis_tx	pelvis_ty	pelvis_tz	hip_flexion_r	hip_adduction_r	hip_rotation_r	knee_angle_r	ankle_angle_r	subtalar_angle_r	mtp_angle_r	hip_flexion_l	hip_adduction_l	hip_rotation_l	knee_angle_l	ankle_angle_l	subtalar_angle_l	mtp_angle_l	lumbar_extension	lumbar_bending	lumbar_rotation	arm_flex_r	arm_add_r	arm_rot_r	elbow_flex_r	pro_sup_r	wrist_flex_r	wrist_dev_r	arm_flex_l	arm_add_l	arm_rot_l	elbow_flex_l	pro_sup_l	wrist_flex_l	wrist_dev_l
      2.05750000000000010000	     -3.56230133974126460000	     -1.75680844219184370000	     -2.23108721714499850000	      0.91677748864591346000	      1.00578297188796180000	     -0.30845418428581234000	     -0.54574067796876902000	     10.45252026097191200000	     11.96622223409163500000	    -28.04971000506404600000	     20.23076546589150100000	      0.00000000000003134056	     -0.00000000000000963879	     39.16283542656393000000	      2.04647265510317400000	      3.74446231537681080000	    -90.72654866161616400000	      2.15841683062079430000	      0.00000000000000539028	     -0.00000000000001520818	     -6.06109860657087030000	      5.73151602492354770000	     11.35449998914595000000	    -16.69906778331837300000	    -14.57071375893430900000	     -3.39400458488655590000	    119.62396421535657000000	     96.93865100504869800000	      0.00000000000000004649	      0.00000000000001159336	    -28.75905309807637900000	    -20.73381242259507900000	      2.81153932202236410000	    125.27524191743825000000	     91.00112387566611000000	     -0.00000000000001078197	     -0.00000000000000166801
      2.05850000000000000000	     -3.61386045023548390000	     -1.67584976742284390000	     -2.22035240180429390000	      0.91703474704881627000	      1.00645613898876360000	     -0.30851244084669288000	     -0.83350761112232452000	     10.31128403281709000000	     11.99560448803288700000	    -27.73294023717059200000	     19.81406975128049200000	      0.00000000000003173385	     -0.00000000000000964138	     39.28138979087566400000	      2.14515069821285610000	      3.73772722915071620000	    -90.33741546916155600000	      2.21556808628356360000	      0.00000000000000547698	     -0.00000000000001537724	     -5.95695456336421540000	      5.64804489594042010000	     11.44245413652331300000	    -16.70345543969834900000	    -14.59574095868513200000	     -3.30802492098927340000	    119.85550205138290000000	     97.03798142741722200000	      0.00000000000000005138	      0.00000000000001174007	    -28.92127248788109000000	    -20.70428632485889900000	      2.76240295717649480000	    125.37394727596656000000	     90.89231133532074100000	     -0.00000000000001081732	     -0.00000000000000170598
      2.05949999999999990000	     -3.66535287458832970000	     -1.59460572505702270000	     -2.20824867933555870000	      0.91729614597533882000	      1.00713483695270960000	     -0.30857411703890586000	     -1.11962042595349520000	     10.16876282188929700000	     12.01965015645838100000	    -27.41637382139004900000	     19.38648176770973200000	      0.00000000000003215205	     -0.00000000000000964275	     39.39644633650345200000	      2.24473195277603120000	      3.73165654614915000000	    -89.94251316045347300000	      2.27193098405141300000	      0.00000000000000557040	     -0.00000000000001555757	     -5.85238519871940890000	      5.56438478370584200000	     11.52741093810097100000	    -16.70818550224996800000	    -14.62007998024142100000	     -3.22074068126628800000	    120.08494581701385000000	     97.13655665151993900000	      0.00000000000000005577	      0.00000000000001190083	    -29.08497104239537400000	    -20.67247263889152000000	      2.71077301697641240000	    125.47189624643467000000	     90.78515941597049700000	     -0.00000000000001085559	     -0.00000000000000174343
      2.06050000000000020000	     -3.71673281934898240000	     -1.51309760013337180000	     -2.19474392338284560000	      0.91756148557315931000	      1.00781889964484690000	     -0.30863918000824414000	     -1.40407143067523380000	     10.02501841393227800000	     12.03823181041544100000	    -27.10005643509048000000	     18.94810507962187500000	      0.00000000000003253916	     -0.00000000000000962570	     39.50797917394131500000	      2.34520499423444350000	      3.72630690681625020000	    -89.54187113108974900000	      2.32736914849621530000	      0.00000000000000566470	     -0.00000000000001573658	     -5.74749016372741290000	      5.48053786798247700000	     11.60934029692245200000	    -16.71323449245337000000	    -14.64370364342224600000	     -3.13216997389679990000	    120.31229147417308000000	     97.23414368516506600000	      0.00000000000000005997	      0.00000000000001205803	    -29.25009388878783100000	    -20.63838044548727900000	      2.65665908369711180000	    125.56907238565971000000	     90.67979681791050000000	     -0.00000000000001090083	     -0.00000000000000178149
